REM DIRINDEX 1\2\6,1\2\7,1\2\8,1\2\9,1\3\10,1\3\11,1\4\12,1\4\13,1\4\14,1\5\15,1\5\16,1\5\17
REM DIRNAME folder01,folder02,folder03,folder04,folder05,folder06,folder07,folder08,folder09,folder10,folder11,folder12,folder13,folder14,folder15,folder16,folder17
TITLE ""
FILE "1400_2_sec07_0633_0649.mp3" MP3
  TRACK 01 AUDIO
    TITLE "0:"
    INDEX 01 00:00:00
  TRACK 02 AUDIO
    TITLE "13:cjc029_2858"
    INDEX 01 00:00:19
  TRACK 03 AUDIO
    TITLE "0:"
    INDEX 01 00:01:44
  TRACK 04 AUDIO
    TITLE "14:cjc029_2859"
    INDEX 01 00:01:46
  TRACK 05 AUDIO
    TITLE "0:"
    INDEX 01 00:02:61
  TRACK 06 AUDIO
    TITLE "13:cjc029_2860"
    INDEX 01 00:03:45
  TRACK 07 AUDIO
    TITLE "0:"
    INDEX 01 00:04:52
  TRACK 08 AUDIO
    TITLE "14:cjc029_2861"
    INDEX 01 00:04:58
  TRACK 09 AUDIO
    TITLE "0:"
    INDEX 01 00:08:26
  TRACK 10 AUDIO
    TITLE "13:cjc029_2862"
    INDEX 01 00:09:08
  TRACK 11 AUDIO
    TITLE "0:"
    INDEX 01 00:10:31
  TRACK 12 AUDIO
    TITLE "14:cjc029_2863"
    INDEX 01 00:10:39
  TRACK 13 AUDIO
    TITLE "0:"
    INDEX 01 00:12:26
  TRACK 14 AUDIO
    TITLE "13:cjc029_2864"
    INDEX 01 00:13:08
  TRACK 15 AUDIO
    TITLE "0:"
    INDEX 01 00:14:19
  TRACK 16 AUDIO
    TITLE "14:cjc029_2865"
    INDEX 01 00:14:23
  TRACK 17 AUDIO
    TITLE "0:"
    INDEX 01 00:17:61
  TRACK 18 AUDIO
    TITLE "13:cjc029_2866"
    INDEX 01 00:18:42
  TRACK 19 AUDIO
    TITLE "0:"
    INDEX 01 00:19:46
  TRACK 20 AUDIO
    TITLE "14:cjc029_2867"
    INDEX 01 00:19:52
  TRACK 21 AUDIO
    TITLE "0:"
    INDEX 01 00:21:11
  TRACK 22 AUDIO
    TITLE "13:cjc029_2868"
    INDEX 01 00:21:68
  TRACK 23 AUDIO
    TITLE "0:"
    INDEX 01 00:23:03
  TRACK 24 AUDIO
    TITLE "14:cjc029_2869"
    INDEX 01 00:23:08
  TRACK 25 AUDIO
    TITLE "0:"
    INDEX 01 00:24:49
  TRACK 26 AUDIO
    TITLE "13:cjc029_2870"
    INDEX 01 00:25:31
  TRACK 27 AUDIO
    TITLE "0:"
    INDEX 01 00:26:46
  TRACK 28 AUDIO
    TITLE "14:cjc029_2871"
    INDEX 01 00:26:54
  TRACK 29 AUDIO
    TITLE "0:"
    INDEX 01 00:29:70
  TRACK 30 AUDIO
    TITLE "13:cjc029_2872"
    INDEX 01 00:30:54
  TRACK 31 AUDIO
    TITLE "0:"
    INDEX 01 00:31:67
  TRACK 32 AUDIO
    TITLE "14:cjc029_2873"
    INDEX 01 00:31:73
  TRACK 33 AUDIO
    TITLE "0:"
    INDEX 01 00:35:08
  TRACK 34 AUDIO
    TITLE "13:cjc029_2874"
    INDEX 01 00:35:63
  TRACK 35 AUDIO
    TITLE "0:"
    INDEX 01 00:36:64
  TRACK 36 AUDIO
    TITLE "14:cjc029_2875"
    INDEX 01 00:36:70
  TRACK 37 AUDIO
    TITLE "0:"
    INDEX 01 00:39:41
  TRACK 38 AUDIO
    TITLE "13:cjc029_2876"
    INDEX 01 00:40:24
  TRACK 39 AUDIO
    TITLE "0:"
    INDEX 01 00:41:28
  TRACK 40 AUDIO
    TITLE "14:cjc029_2877"
    INDEX 01 00:41:34
  TRACK 41 AUDIO
    TITLE "0:"
    INDEX 01 00:42:65
  TRACK 42 AUDIO
    TITLE "12:cjc029_2878"
    INDEX 01 00:44:40
  TRACK 43 AUDIO
    TITLE "0:"
    INDEX 01 00:46:00
  TRACK 44 AUDIO
    TITLE "13:cjc029_2879"
    INDEX 01 00:46:74
  TRACK 45 AUDIO
    TITLE "0:"
    INDEX 01 00:47:70
  TRACK 46 AUDIO
    TITLE "14:cjc029_2880"
    INDEX 01 00:48:04
  TRACK 47 AUDIO
    TITLE "0:"
    INDEX 01 00:52:04
  TRACK 48 AUDIO
    TITLE "13:cjc029_2881"
    INDEX 01 00:52:61
  TRACK 49 AUDIO
    TITLE "0:"
    INDEX 01 00:53:70
  TRACK 50 AUDIO
    TITLE "14:cjc029_2882"
    INDEX 01 00:54:01
  TRACK 51 AUDIO
    TITLE "0:"
    INDEX 01 00:55:40
  TRACK 52 AUDIO
    TITLE "13:cjc029_2883"
    INDEX 01 00:56:20
  TRACK 53 AUDIO
    TITLE "0:"
    INDEX 01 00:57:29
  TRACK 54 AUDIO
    TITLE "14:cjc029_2884"
    INDEX 01 00:57:33
  TRACK 55 AUDIO
    TITLE "0:"
    INDEX 01 00:58:40
  TRACK 56 AUDIO
    TITLE "13:cjc029_2885"
    INDEX 01 00:59:22
  TRACK 57 AUDIO
    TITLE "0:"
    INDEX 01 01:00:19
  TRACK 58 AUDIO
    TITLE "14:cjc029_2886"
    INDEX 01 01:00:27
  TRACK 59 AUDIO
    TITLE "0:"
    INDEX 01 01:02:52
  TRACK 60 AUDIO
    TITLE "13:cjc029_2887"
    INDEX 01 01:03:33
  TRACK 61 AUDIO
    TITLE "0:"
    INDEX 01 01:04:43
  TRACK 62 AUDIO
    TITLE "14:cjc029_2888"
    INDEX 01 01:04:47
  TRACK 63 AUDIO
    TITLE "0:"
    INDEX 01 01:07:10
  TRACK 64 AUDIO
    TITLE "13:cjc029_2889"
    INDEX 01 01:07:68
  TRACK 65 AUDIO
    TITLE "0:"
    INDEX 01 01:09:05
  TRACK 66 AUDIO
    TITLE "14:cjc029_2890"
    INDEX 01 01:09:09
  TRACK 67 AUDIO
    TITLE "0:"
    INDEX 01 01:11:37
  TRACK 68 AUDIO
    TITLE "13:cjc029_2891"
    INDEX 01 01:12:21
  TRACK 69 AUDIO
    TITLE "0:"
    INDEX 01 01:13:26
  TRACK 70 AUDIO
    TITLE "14:cjc029_2892"
    INDEX 01 01:13:30
  TRACK 71 AUDIO
    TITLE "0:"
    INDEX 01 01:14:19
